<svg
  viewBox="0 0 200 200"
  xmlns="http://www.w3.org/2000/svg"
>
  <path
    fill="#F89F46"
    d="M34.4,-56.6C46.2,-52.8,58.5,-46.8,63.9,-37.1C69.3,-27.3,67.7,-13.6,66.5,-0.7C65.4,12.3,64.6,24.6,61.2,37.7C57.8,50.9,51.7,64.9,41,70.6C30.4,76.3,15.2,73.6,2.2,69.8C-10.8,66,-21.6,61,-30.6,54.4C-39.7,47.8,-47,39.6,-56,30.2C-65,20.9,-75.8,10.5,-78.1,-1.3C-80.4,-13.1,-74.2,-26.2,-65.4,-35.8C-56.5,-45.4,-44.9,-51.5,-33.5,-55.5C-22.2,-59.5,-11.1,-61.5,0.1,-61.7C11.3,-61.9,22.6,-60.3,34.4,-56.6Z"
    transform="translate(100 100)"
  />
</svg>
