<svg
  viewBox="0 0 200 200"
  xmlns="http://www.w3.org/2000/svg"
>
  <path
    fill="#F6D95A"
    d="M41.6,-75.2C52.4,-65.8,58.5,-51.6,65.1,-38.2C71.7,-24.9,78.8,-12.4,80.5,1C82.3,14.5,78.7,28.9,70.3,39.1C61.8,49.2,48.5,55.1,36,61.8C23.4,68.6,11.7,76.2,-1.3,78.5C-14.4,80.8,-28.7,77.7,-41.5,71.1C-54.2,64.5,-65.3,54.3,-73.7,41.8C-82.1,29.4,-87.7,14.7,-87.7,0.1C-87.6,-14.6,-81.7,-29.2,-71.4,-38.3C-61,-47.3,-46.2,-50.8,-33.6,-59.1C-20.9,-67.4,-10.5,-80.5,2.5,-84.8C15.4,-89.1,30.8,-84.6,41.6,-75.2Z"
    transform="translate(100 100)"
  />
</svg>
