<svg xmlns="http://www.w3.org/2000/svg" width="107.9" height="25.92" viewBox="0 0 107.9 25.92"><defs><style>.cls-1{fill:#fff;}</style></defs><g><g><path class="cls-1" d="M13.64,13.43H10.91V9.2H8.33V22.86h3v2.73H2.29V22.86h3V9.2H2.7v4.23H0v-7H13.64Z"/><path class="cls-1" d="M29.31,25.59H17.09V6.47H29.31V9.2H20.13v5.3h7.16v2.72H20.13v5.64h9.18Z"/><path class="cls-1" d="M47,16a16.1,16.1,0,0,1-.41,3.66,8.87,8.87,0,0,1-1.29,3,6.53,6.53,0,0,1-2.28,2.09,6.84,6.84,0,0,1-3.38.78H33.47V6.47h6.21a6.44,6.44,0,0,1,5.63,2.87,9,9,0,0,1,1.31,3A15.47,15.47,0,0,1,47,16Zm-3,0A9.4,9.4,0,0,0,42.88,11a3.6,3.6,0,0,0-3.2-1.75H36.5V22.86h3.18a3.57,3.57,0,0,0,3.2-1.79A9.52,9.52,0,0,0,44,16Z"/><path class="cls-1" d="M48.65,16a16.08,16.08,0,0,1,.41-3.7,9.91,9.91,0,0,1,1.27-3.15A6.61,6.61,0,0,1,52.6,7a7.28,7.28,0,0,1,6.75,0,6.82,6.82,0,0,1,2.28,2.19,9.47,9.47,0,0,1,1.27,3.15,17.31,17.31,0,0,1,0,7.4,9.78,9.78,0,0,1-1.26,3.16,6.25,6.25,0,0,1-5.67,3,6.28,6.28,0,0,1-5.67-3A9.35,9.35,0,0,1,49,19.72,17.26,17.26,0,0,1,48.65,16Zm3,0a17.25,17.25,0,0,0,.2,2.58,8.32,8.32,0,0,0,.67,2.31,4.37,4.37,0,0,0,1.3,1.65,3.88,3.88,0,0,0,4.24,0,4.37,4.37,0,0,0,1.3-1.65,8.68,8.68,0,0,0,.68-2.31A17.23,17.23,0,0,0,60.26,16a17,17,0,0,0-.19-2.57,8.83,8.83,0,0,0-.68-2.3A4.26,4.26,0,0,0,58.07,9.5,3.4,3.4,0,0,0,56,8.87a3.49,3.49,0,0,0-3.19,1.89A10.6,10.6,0,0,0,51.68,16Z"/><path class="cls-1" d="M79.42,25.59H75.59l-5-7.74H69.26v7.74h-3V6.47h6.29a7.51,7.51,0,0,1,4.9,1.44,5.25,5.25,0,0,1,1.74,4.27,5.87,5.87,0,0,1-.39,2.22,4.69,4.69,0,0,1-1.1,1.65A5.33,5.33,0,0,1,76,17.14a7.83,7.83,0,0,1-2,.55ZM76.13,12.12a2.59,2.59,0,0,0-1-2.19,4.26,4.26,0,0,0-2.65-.73H69.26v5.9h3.26a4.32,4.32,0,0,0,2.65-.73A2.65,2.65,0,0,0,76.13,12.12Z"/><path class="cls-1" d="M93.34,25.59H84.17V22.86h3V9.2h-3V6.47h9.17V9.2H90.22V22.86h3.12Z"/><path class="cls-1" d="M103.74,13.83a4.73,4.73,0,0,1-1.58-.24,4.22,4.22,0,0,1-1.27-.74v4.57H98.76V4.11a4.19,4.19,0,0,1,.34-1.67,4.17,4.17,0,0,1,.91-1.3A4.09,4.09,0,0,1,101.39.3a4.82,4.82,0,0,1,1.72-.3,4.69,4.69,0,0,1,1.77.31,4,4,0,0,1,1.32.82A3.52,3.52,0,0,1,107,2.28a3.18,3.18,0,0,1,.29,1.29,3.22,3.22,0,0,1-.6,1.92A3.35,3.35,0,0,1,105,6.72,4.71,4.71,0,0,1,107.13,8,2.92,2.92,0,0,1,107.9,10a3.8,3.8,0,0,1-.31,1.53,3.4,3.4,0,0,1-.86,1.19,4.14,4.14,0,0,1-1.32.79A4.72,4.72,0,0,1,103.74,13.83Zm-.37-1.9a2.59,2.59,0,0,0,1.77-.55,1.9,1.9,0,0,0,.63-1.52,2,2,0,0,0-.66-1.54,3,3,0,0,0-2-.57h-1V5.84h1a2.12,2.12,0,0,0,1.66-.57,2.17,2.17,0,0,0,.5-1.46,2.21,2.21,0,0,0-.11-.64,1.63,1.63,0,0,0-.36-.62,1.77,1.77,0,0,0-.65-.46,2.32,2.32,0,0,0-1-.18,2.56,2.56,0,0,0-.82.13,2.12,2.12,0,0,0-.71.42,2,2,0,0,0-.51.68,2.4,2.4,0,0,0-.18,1V10.8A3,3,0,0,0,103.37,11.93Z"/></g></g></svg>
