<svg xmlns="http://www.w3.org/2000/svg" width="179.82" height="43.21" viewBox="0 0 179.82 43.21"><defs><style>.cls-1{fill:#f57c00;}</style></defs><g id="レイヤー_2" data-name="レイヤー 2"><g id="レイヤー_1-2" data-name="レイヤー 1"><path d="M22.73,22.38H18.19v-7h-4.3V38.1H19v4.55H3.81V38.1h5V15.33H4.49v7H0V10.78H22.73Z"/><path d="M48.85,42.65H28.49V10.78H48.85v4.55H33.54v8.83H45.48V28.7H33.54v9.4H48.85Z"/><path d="M78.39,26.7a26.69,26.69,0,0,1-.67,6.09,14.93,14.93,0,0,1-2.15,5.08,10.85,10.85,0,0,1-3.8,3.48,11.51,11.51,0,0,1-5.63,1.3H55.79V10.78H66.14a11.28,11.28,0,0,1,5.58,1.31,11,11,0,0,1,3.8,3.48,15.31,15.31,0,0,1,2.18,5.05A26,26,0,0,1,78.39,26.7Zm-5,0c0-3.68-.63-6.5-1.88-8.44a6,6,0,0,0-5.32-2.92h-5.3V38.1h5.3a5.94,5.94,0,0,0,5.32-3Q73.33,32.14,73.34,26.69Z"/><path d="M81.08,26.7a27.78,27.78,0,0,1,.68-6.17,16.72,16.72,0,0,1,2.13-5.25,11,11,0,0,1,3.77-3.65,12.15,12.15,0,0,1,11.25,0,11.25,11.25,0,0,1,3.8,3.65,15.82,15.82,0,0,1,2.12,5.25,29.17,29.17,0,0,1,0,12.34,16.81,16.81,0,0,1-2.1,5.27,11.65,11.65,0,0,1-15.12,3.69,11,11,0,0,1-3.78-3.69,16.35,16.35,0,0,1-2.1-5.27A28.39,28.39,0,0,1,81.08,26.7Zm5,0A28.43,28.43,0,0,0,86.46,31a14.21,14.21,0,0,0,1.13,3.85,7.12,7.12,0,0,0,2.17,2.74,6.39,6.39,0,0,0,7,0A7.24,7.24,0,0,0,99,34.87,14.21,14.21,0,0,0,100.11,31a28.43,28.43,0,0,0,.33-4.31,27.82,27.82,0,0,0-.33-4.27A14.24,14.24,0,0,0,99,18.6a7.09,7.09,0,0,0-2.2-2.76,5.68,5.68,0,0,0-3.5-1.05A5.83,5.83,0,0,0,88,17.94C86.74,20,86.13,23,86.13,26.71Z"/><path d="M132.37,42.65H126l-8.26-12.9h-2.29v12.9h-5.05V10.78h10.49c3.5,0,6.22.81,8.16,2.41s2.9,4,2.9,7.12a9.77,9.77,0,0,1-.64,3.69,8.08,8.08,0,0,1-1.83,2.75,9,9,0,0,1-2.76,1.82,13.27,13.27,0,0,1-3.41.92Zm-5.49-22.44a4.3,4.3,0,0,0-1.6-3.66,7.07,7.07,0,0,0-4.41-1.22h-5.44v9.83h5.44a7.07,7.07,0,0,0,4.41-1.22A4.37,4.37,0,0,0,126.88,20.21Z"/><path d="M155.57,42.65H140.28V38.1h5V15.33h-5V10.78h15.29v4.55h-5.2V38.1h5.2Z"/><path class="cls-1" d="M172.91,23.06a7.71,7.71,0,0,1-2.64-.41,7.22,7.22,0,0,1-2.13-1.24V29h-3.53V6.85a6.7,6.7,0,0,1,2.08-4.95A7,7,0,0,1,169,.5a8.16,8.16,0,0,1,2.87-.5,7.87,7.87,0,0,1,3,.52A6.79,6.79,0,0,1,177,1.89a6,6,0,0,1,1.36,1.91A5.24,5.24,0,0,1,178.85,6a5.36,5.36,0,0,1-1,3.2,5.62,5.62,0,0,1-2.86,2,7.83,7.83,0,0,1,3.56,2.06,4.88,4.88,0,0,1,1.27,3.47,6.24,6.24,0,0,1-.5,2.55,5.79,5.79,0,0,1-1.43,2,7,7,0,0,1-2.21,1.31A7.79,7.79,0,0,1,172.91,23.06Zm-.63-3.18a4.37,4.37,0,0,0,3-.91,3.16,3.16,0,0,0,1-2.53,3.26,3.26,0,0,0-1.1-2.57,5.05,5.05,0,0,0-3.38-1h-1.67V9.74h1.57a3.51,3.51,0,0,0,2.77-1,3.56,3.56,0,0,0,.84-2.44,3.52,3.52,0,0,0-.18-1.06,2.84,2.84,0,0,0-.6-1,3.06,3.06,0,0,0-1.09-.77,3.87,3.87,0,0,0-1.6-.3,4,4,0,0,0-1.37.23,3.61,3.61,0,0,0-1.19.68,3.36,3.36,0,0,0-.83,1.14,3.84,3.84,0,0,0-.32,1.62V18A5,5,0,0,0,172.28,19.88Z"/></g></g></svg>