<svg xmlns="http://www.w3.org/2000/svg" width="71.93" height="17.28" viewBox="0 0 71.93 17.28"><defs><style>.cls-1{fill:#f57c00;}</style></defs><g id="レイヤー_2" data-name="レイヤー 2"><g id="レイヤー_1-2" data-name="レイヤー 1"><path d="M9.09,9H7.28V6.13H5.56v9.11h2v1.82H1.52V15.24h2V6.13H1.8V9H0V4.31H9.09Z"/><path d="M19.54,17.06H11.4V4.31h8.14V6.13H13.42V9.67h4.77v1.81H13.42v3.76h6.12Z"/><path d="M31.36,10.68a10.73,10.73,0,0,1-.27,2.44,6.1,6.1,0,0,1-.86,2,4.32,4.32,0,0,1-1.52,1.39,4.56,4.56,0,0,1-2.25.52H22.31V4.31h4.15a4.51,4.51,0,0,1,2.23.53,4.32,4.32,0,0,1,1.52,1.39,6.27,6.27,0,0,1,.87,2A10.64,10.64,0,0,1,31.36,10.68Zm-2,0a6.18,6.18,0,0,0-.76-3.38,2.38,2.38,0,0,0-2.12-1.17H24.34v9.11h2.12a2.38,2.38,0,0,0,2.12-1.19A6.25,6.25,0,0,0,29.34,10.68Z"/><path d="M32.43,10.68a10.57,10.57,0,0,1,.28-2.47,6.79,6.79,0,0,1,.84-2.1,4.58,4.58,0,0,1,1.51-1.46,4.9,4.9,0,0,1,4.51,0,4.58,4.58,0,0,1,1.51,1.46,6.35,6.35,0,0,1,.85,2.1,11.43,11.43,0,0,1,0,4.94,6.48,6.48,0,0,1-.84,2.11,4.21,4.21,0,0,1-3.78,2A4.39,4.39,0,0,1,35,16.73a4.52,4.52,0,0,1-1.51-1.47,6.48,6.48,0,0,1-.84-2.11A11.76,11.76,0,0,1,32.43,10.68Zm2,0a12.57,12.57,0,0,0,.13,1.72A5.9,5.9,0,0,0,35,14a3.08,3.08,0,0,0,.87,1.1,2.59,2.59,0,0,0,2.83,0,3,3,0,0,0,.86-1.1A5.22,5.22,0,0,0,40,12.41a11.18,11.18,0,0,0,.14-1.72A10.76,10.76,0,0,0,40,9a5.22,5.22,0,0,0-.45-1.54,2.81,2.81,0,0,0-.87-1.1,2.47,2.47,0,0,0-3.53.84A7,7,0,0,0,34.45,10.69Z"/><path d="M53,17.06H50.39l-3.3-5.16h-.92v5.16h-2V4.31h4.2a4.92,4.92,0,0,1,3.26,1,3.46,3.46,0,0,1,1.16,2.84,3.76,3.76,0,0,1-.26,1.48,3.07,3.07,0,0,1-.73,1.1,3.47,3.47,0,0,1-1.1.73,5,5,0,0,1-1.36.36Zm-2.2-9a1.7,1.7,0,0,0-.64-1.46,2.79,2.79,0,0,0-1.76-.49H46.17v3.94h2.18a2.85,2.85,0,0,0,1.76-.49A1.77,1.77,0,0,0,50.75,8.08Z"/><path d="M62.23,17.06H56.11V15.24h2V6.13h-2V4.31h6.12V6.13H60.15v9.11h2.08Z"/><path class="cls-1" d="M69.16,9.22a3.05,3.05,0,0,1-1-.16,2.75,2.75,0,0,1-.85-.5v3H65.84V2.74a2.72,2.72,0,0,1,.23-1.11,2.58,2.58,0,0,1,.61-.87A2.79,2.79,0,0,1,67.59.2,3.35,3.35,0,0,1,68.74,0a3.14,3.14,0,0,1,1.18.21,2.59,2.59,0,0,1,.88.55,2.38,2.38,0,0,1,.55.76,2.06,2.06,0,0,1,.19.86,2.12,2.12,0,0,1-.4,1.28A2.25,2.25,0,0,1,70,4.48a3.21,3.21,0,0,1,1.42.82,2,2,0,0,1,.51,1.39,2.61,2.61,0,0,1-.2,1,2.42,2.42,0,0,1-.58.8,2.74,2.74,0,0,1-.88.52A3.08,3.08,0,0,1,69.16,9.22ZM68.91,8a1.78,1.78,0,0,0,1.19-.36,1.26,1.26,0,0,0,.42-1,1.3,1.3,0,0,0-.44-1,2,2,0,0,0-1.35-.38h-.67V3.89h.62a1.38,1.38,0,0,0,1.11-.38,1.45,1.45,0,0,0,.34-1,1.41,1.41,0,0,0-.08-.43,1,1,0,0,0-.23-.41,1.29,1.29,0,0,0-.44-.31,1.56,1.56,0,0,0-.64-.12,1.71,1.71,0,0,0-.55.09,1.5,1.5,0,0,0-.47.28,1.41,1.41,0,0,0-.34.45,1.6,1.6,0,0,0-.12.65V7.2A2,2,0,0,0,68.91,8Z"/></g></g></svg>