<svg xmlns="http://www.w3.org/2000/svg" width="32" height="24" viewBox="0 0 32 24"><defs><style>.cls-1{fill:#f6d95a;}.cls-1,.cls-2{opacity:0.75;}.cls-2{fill:#f89f46;}</style></defs><g id="レイヤー_2" data-name="レイヤー 2"><g id="レイヤー_1-2" data-name="レイヤー 1"><path class="cls-1" d="M29.41,2.08c2.05,2.09,3,6,2.44,9.25s-2.52,5.86-4.56,8.2S23.17,24,21.08,24s-4.17-2.11-5.63-4.45A16.31,16.31,0,0,1,13,11.79,12.94,12.94,0,0,1,14.8,3.91,9.72,9.72,0,0,1,21.45.19C24.24-.27,27.38,0,29.41,2.08Z"/><path class="cls-2" d="M17.22,4.37A14.9,14.9,0,0,1,20,13a12.33,12.33,0,0,1-3,7.86,10.13,10.13,0,0,1-6.61,3.1c-2.55.29-5.31-.05-7.33-2a11.1,11.1,0,0,1-3-8.56c.27-3.14,2.09-5.94,4.11-8.47S8.38.15,10.71,0,15.47,1.84,17.22,4.37Z"/></g></g></svg>
