<svg xmlns="http://www.w3.org/2000/svg" width="512" height="512" viewBox="0 0 512 512"><defs><style>.cls-1{fill:none;}.cls-2{fill:#f5e393;}.cls-3{fill:#f1b981;}.cls-4{fill:#eeb266;}</style></defs><rect class="cls-1" width="512" height="512"/><path class="cls-2" d="M470.56,97.35C438,63.94,387.81,59.87,343.27,67.2c-35,5.76-66.28,18.55-89.33,39.94a239.59,239.59,0,0,1,21.67,26.93c28.08,40.22,45.21,89.48,44.41,137.24-1,48-20.11,95-48.2,125.67-1.92,2.12-3.9,4.15-5.91,6.12C286.83,428.72,312.1,448,337.38,448c33.4-.28,66.81-34,99.34-71.44s64.4-79,72.92-131.19S503.31,130.76,470.56,97.35Z"/><path class="cls-3" d="M208.56,252.71c-2.62-44.81,5.24-92.89,28.39-126a118.92,118.92,0,0,1,17-19.54C229.1,80.59,199.69,62.66,171.43,64.2c-37.24,2.26-72.7,38.2-105,78.42C34.2,183.08,5.11,227.82.73,278.09c-4.38,50.52,15.74,106.32,48,137s76.48,36.19,117.31,31.42c37.83-4.22,72.72-16.93,99.86-43.4a253.91,253.91,0,0,1-18.7-26.26A261.21,261.21,0,0,1,208.56,252.71Z"/><path class="cls-4" d="M271.82,397C299.91,366.32,319,319.31,320,271.31c.8-47.76-16.33-97-44.41-137.24a239.59,239.59,0,0,0-21.67-26.93,118.92,118.92,0,0,0-17,19.54c-23.15,33.14-31,81.22-28.39,126a261.21,261.21,0,0,0,38.65,124.13,253.91,253.91,0,0,0,18.7,26.26C267.92,401.13,269.9,399.1,271.82,397Z"/></svg>
